PathFileType	4	(X/Y/Z)	C:/Users/opensim2020/Desktop/walking_exp_matlab/subject03_walking07_straight_03.trc	
DataRate	CameraRate	NumFrames	NumMarkers	Units	OrigDataRate	OrigDataStartFrame	OrigNumFrames	
100.00	100.00	7	46	mm	100.00	2356	306	
Frame#	Time	LFHD			RFHD			LBHD			RBHD			C7			T10			CLAV			STRN			RBAK			LSHO			LUPA			LELB			LFRM			LWRA			LWRB			LFIN			RSHO			RUPA			RELB			RFRM			RWRA			RWRB			RFIN			LASI			RASI			LPSI			RPSI			LTHI			LKNE			LTIB			LANK			LHEE			LTOE			RTHI			RKNE			RTIB			RANK			RHEE			RTOE			*39			*40			*41			*42			*43			*44			*45			
		X1	Y1	Z1	X2	Y2	Z2	X3	Y3	Z3	X4	Y4	Z4	X5	Y5	Z5	X6	Y6	Z6	X7	Y7	Z7	X8	Y8	Z8	X9	Y9	Z9	X10	Y10	Z10	X11	Y11	Z11	X12	Y12	Z12	X13	Y13	Z13	X14	Y14	Z14	X15	Y15	Z15	X16	Y16	Z16	X17	Y17	Z17	X18	Y18	Z18	X19	Y19	Z19	X20	Y20	Z20	X21	Y21	Z21	X22	Y22	Z22	X23	Y23	Z23	X24	Y24	Z24	X25	Y25	Z25	X26	Y26	Z26	X27	Y27	Z27	X28	Y28	Z28	X29	Y29	Z29	X30	Y30	Z30	X31	Y31	Z31	X32	Y32	Z32	X33	Y33	Z33	X34	Y34	Z34	X35	Y35	Z35	X36	Y36	Z36	X37	Y37	Z37	X38	Y38	Z38	X39	Y39	Z39	X40	Y40	Z40	X41	Y41	Z41	X42	Y42	Z42	X43	Y43	Z43	X44	Y44	Z44	X45	Y45	Z45	X46	Y46	Z46	

192	1.910	1370.73914	517.28662	1610.93726	1503.41992	516.79944	1616.30444	1376.90649	392.87012	1558.38794	1507.76147	397.35895	1563.84314	1432.54187	370.29950	1404.19470	1433.07898	341.25833	1090.10803	1434.66663	491.48901	1326.84998	1426.68018	536.13879	1162.99634	1522.08972	315.27463	1226.17419	1279.85400	452.44980	1365.14722	1202.75769	483.64410	1178.02942	1188.67920	529.95941	1066.02368	1203.22119	620.64502	977.34985	1249.53564	701.84613	900.39270	1199.11389	686.12329	884.18604	1217.11279	752.14154	838.23108	1594.72522	441.70114	1348.20300	1662.95313	420.93219	1125.35815	1675.20203	423.44504	1011.91187	1677.35425	421.42798	874.54663	1642.67798	438.81049	775.33148	1686.15613	405.82535	775.23584	1674.90625	416.11551	700.39465	1306.41833	501.41153	926.18878	1546.20642	517.36761	930.22577	1371.22144	343.28915	949.87274	1518.78088	353.50101	955.79730	1271.12097	397.71786	633.35602	1300.96094	357.84415	457.32849	1302.35242	223.52660	305.93701	1344.03503	107.21894	131.11000	1379.83130	55.86328	120.30415	1375.58789	223.19193	32.32767	1593.02576	513.53986	641.77582	1558.99207	576.63885	471.45218	1567.53394	585.95325	285.34210	1525.85107	624.51410	71.63471	1473.64429	584.02478	39.34296	1510.01636	768.23700	39.00988																					 
193	1.920	1371.91541	528.01422	1612.30054	1504.61829	527.79663	1617.77295	1378.36853	403.52573	1560.00415	1509.24207	408.17752	1565.57117	1434.22302	381.12128	1405.60474	1433.99060	352.71555	1091.18091	1435.96436	502.31870	1328.52209	1427.86121	547.47595	1164.78772	1523.80798	326.86035	1227.09094	1281.08130	462.83713	1366.57556	1204.41870	492.81741	1178.84204	1190.34351	538.41644	1066.35950	1204.90454	628.39557	976.86438	1251.06799	708.98682	899.30646	1200.75977	692.84155	883.00952	1218.60278	758.60809	836.64819	1596.16077	452.83762	1349.50977	1664.23328	433.14493	1126.46118	1676.38367	435.99637	1012.94440	1678.50671	433.94510	875.57074	1643.76501	451.02594	776.35687	1687.31384	418.37930	776.24878	1676.12683	428.40561	701.45752	1307.91992	513.57349	926.79150	1547.41577	529.43439	932.68829	1372.06030	355.50873	950.32135	1519.63342	365.29837	958.24176	1271.36731	412.23657	633.10486	1299.70947	373.43423	456.85349	1302.09387	235.02550	308.56293	1344.42529	113.97105	137.63779	1380.94006	63.11165	129.47676	1375.82324	223.88599	32.12809	1594.29333	523.01099	643.68439	1559.07288	586.24591	473.11771	1567.54407	592.02704	285.99338	1525.19824	625.78790	71.98421	1473.52612	584.18298	39.38967	1507.12866	769.13397	38.58732																					 
194	1.930	1373.17505	538.70984	1613.78589	1505.76355	538.79108	1619.33264	1379.90820	414.10318	1561.82617	1510.62158	419.19675	1567.41882	1435.86438	391.86459	1407.13770	1434.88196	364.01862	1092.59131	1437.23035	513.12384	1330.28711	1428.99561	558.74481	1166.73682	1525.68750	338.14737	1228.41309	1282.36072	473.18359	1368.32996	1206.07385	501.86856	1179.96924	1192.30847	546.71277	1067.02332	1206.64929	635.73462	976.41882	1252.55066	715.55829	897.97278	1202.34106	699.00177	881.76202	1220.04248	764.32422	834.75256	1597.49731	464.01877	1351.08630	1665.37634	445.53995	1127.90540	1677.49023	448.81656	1014.42065	1679.70776	446.84311	877.04083	1644.85742	463.67789	777.72906	1688.67981	431.38025	777.66870	1677.39417	441.14404	702.82233	1309.43433	525.50885	927.52063	1548.66003	541.21899	935.51349	1372.64197	367.65582	951.14771	1520.23840	376.94601	960.83521	1271.48230	427.15894	632.93488	1298.02014	390.51447	456.27625	1301.74011	247.75067	311.41406	1345.06995	122.29520	144.64494	1382.53662	72.07575	139.36761	1376.22253	224.70750	32.04782	1595.46960	532.81396	645.72607	1559.40222	595.45361	474.92343	1567.58826	597.30518	286.96945	1525.10815	626.45721	72.37997	1473.35291	584.39484	39.56642	1507.37695	769.45972	38.25869				1419.70447	450.47830	1666.76611															 
195	1.940	1374.15662	549.38049	1615.31409	1506.99304	549.91742	1620.90625	1381.32861	424.65344	1563.78833	1512.08838	429.88724	1569.40027	1437.40344	402.47351	1408.73181	1435.73987	374.98499	1094.14758	1438.44226	523.84088	1332.17090	1430.10815	569.88885	1168.76294	1527.53235	349.43411	1229.86780	1283.72424	483.50745	1370.31689	1207.80237	510.84573	1181.34009	1194.50732	554.91669	1067.91187	1208.47693	642.71320	976.00531	1253.92505	721.58557	896.38690	1203.75476	704.65082	880.42651	1221.28271	769.33777	832.52783	1598.76868	475.15927	1352.89502	1666.53027	458.05167	1129.51965	1678.53125	461.82108	1016.11511	1680.91907	460.10339	878.77228	1646.00146	476.83957	779.47113	1690.16125	444.86212	779.38208	1678.63965	454.46265	704.45648	1310.98474	537.09821	928.50238	1549.89026	552.73145	938.41602	1373.20349	379.48703	952.28381	1520.69019	388.22415	963.45935	1271.37952	442.34805	632.84418	1296.21899	408.39273	455.61383	1301.25769	261.83762	314.40729	1345.79285	132.12419	151.79489	1384.32617	83.00832	149.56915	1376.96069	226.02638	32.11209	1596.70215	543.14008	647.84088	1560.36768	603.51276	476.52585	1568.33435	601.21069	287.63632	1524.79333	625.67627	72.30912	1473.44873	584.28198	39.54321	1508.02734	769.42560	38.10404				1421.03992	461.57513	1668.61133															 
196	1.950	1375.28735	560.14417	1616.86511	1508.10791	560.90039	1622.30408	1382.71729	435.22159	1565.86426	1513.36414	440.70605	1571.37195	1438.86572	412.88959	1410.18652	1436.58740	385.90369	1095.62622	1439.57117	534.53705	1334.01599	1431.11865	580.97565	1170.69983	1529.39355	360.62619	1231.35889	1285.03235	493.66678	1372.38647	1209.62732	519.94525	1182.99951	1196.89185	562.95715	1069.00525	1210.24707	649.47803	975.68439	1255.23499	727.21472	894.69312	1205.07117	709.79590	879.01196	1222.31873	773.69312	829.95404	1599.91895	486.23993	1354.79614	1667.68994	470.56937	1131.35132	1679.48975	475.00024	1018.01447	1682.15198	473.67328	880.73022	1647.19055	490.40668	781.37219	1691.75867	458.65170	781.29669	1679.91089	468.29370	706.22089	1312.87939	548.97913	929.94983	1551.17749	563.93445	941.21582	1373.67065	391.24268	953.51898	1521.16382	399.44278	965.97003	1271.14978	457.72476	632.61658	1294.18054	427.46521	454.86053	1300.74292	277.33273	317.30814	1346.32605	143.95030	158.62383	1386.01440	95.86813	159.79730	1378.22705	227.43918	32.00569	1598.25146	553.57935	649.90680	1561.87585	610.18683	477.70078	1569.49463	603.56805	287.84775	1525.00488	625.35754	72.58368	1473.71106	584.09229	39.48560	1507.77673	769.31970	37.99427				1424.44360	473.15680	1671.30237															 
197	1.960	1376.48059	570.89734	1618.16406	1509.19092	571.74268	1623.44092	1383.98132	445.66745	1567.87622	1514.58911	451.29639	1573.23560	1440.34436	423.26779	1411.52820	1437.54858	396.84137	1097.01245	1440.60364	545.10046	1335.70508	1432.00781	591.93414	1172.48352	1531.10291	372.06396	1232.70789	1286.39429	503.70663	1374.43115	1211.46960	529.12109	1184.70422	1199.16418	570.91998	1070.06775	1211.92407	655.91699	975.31134	1256.33508	732.46124	892.72864	1206.15894	714.55750	877.50098	1223.25830	777.55249	827.02014	1600.96094	497.29153	1356.66992	1668.91931	483.09277	1133.20801	1680.62769	488.36597	1020.02490	1683.46179	487.56873	882.69385	1648.43591	504.41309	783.39423	1693.29602	473.10693	783.18671	1681.30811	482.64206	708.00922	1314.55200	560.14172	931.20721	1552.47241	574.86023	943.75311	1374.42822	402.67371	954.55774	1521.88171	410.59967	968.07452	1270.84473	473.15900	632.30737	1292.43945	446.86115	453.82510	1300.32434	294.03259	319.95032	1346.42407	157.04939	164.81564	1387.05969	110.27250	169.76299	1378.64795	229.00783	32.08582	1599.80481	563.42621	651.69550	1563.64758	616.04181	478.47403	1570.64917	605.70197	288.11179	1525.08594	625.07477	72.65879	1474.01807	583.98828	39.54364	1507.90710	769.27893	37.93399				1425.16406	484.17041	1672.81287															 
198	1.970	1377.76440	581.66241	1619.26160	1510.95215	583.28229	1624.67175	1385.13330	455.95917	1569.77881	1515.71179	461.73053	1574.90112	1441.73914	433.62524	1412.70032	1438.66064	407.38370	1098.29639	1441.49707	555.64307	1337.17163	1432.77600	602.77301	1174.07849	1532.84912	383.36710	1234.10022	1287.73206	513.58649	1376.25598	1213.25073	538.12250	1186.18457	1201.42383	578.80145	1071.13440	1213.48291	662.14056	974.77167	1257.28833	737.39948	890.55103	1207.06738	719.02240	875.84894	1224.11755	780.93671	823.69147	1601.90295	508.33969	1358.41528	1670.13354	495.61597	1134.98645	1681.81042	501.64410	1021.94220	1684.79700	501.75034	884.68530	1649.72192	518.85968	785.37158	1694.85254	487.87515	785.01544	1682.62744	497.44867	709.73535	1316.19812	570.90527	932.39392	1553.71033	585.56982	945.88251	1375.33167	413.45316	955.65460	1522.68896	421.66821	970.02570	1270.64539	488.57495	631.77637	1291.22705	466.74442	452.83707	1300.16321	311.97794	322.05051	1345.87756	171.73288	170.33440	1386.88538	125.68871	179.74469	1378.17590	232.17070	33.32879	1601.05933	572.34497	653.05157	1565.33179	621.32208	479.00626	1571.79578	608.59778	288.41974	1525.30200	625.25763	72.80335	1474.23071	583.96313	39.64584	1507.94788	769.42059	37.79811				1427.07617	495.46765	1674.61365															 
